<svg xmlns="http://www.w3.org/2000/svg" viewBox="0 0 164.95 135.72"><defs><style>.cls-1{fill:#ddebff;}.cls-1,.cls-4{opacity:0.5;}.cls-2{opacity:0.1;}.cls-3{fill:#463e3b;}.cls-4{fill:#8bd2ff;}.cls-14,.cls-5{fill:#fff;}.cls-6{fill:#e6f4ff;}.cls-7{fill:none;stroke:#fff;stroke-miterlimit:10;stroke-width:3px;}.cls-8{fill:#ceeaff;}.cls-9{fill:#ffb82a;}.cls-10{fill:#6262a0;}.cls-10,.cls-14{opacity:0.15;}.cls-11{fill:#60609a;}.cls-12{fill:#25c83a;}.cls-13{fill:#ff5750;}.cls-15{fill:#8686ba;}</style></defs><title>Asset 290</title><g id="Layer_2" data-name="Layer 2"><g id="Layer_1-2" data-name="Layer 1"><path class="cls-1" d="M158.76,58.86A39.21,39.21,0,0,0,128.92,20.6a56,56,0,0,0-89.58,6.69,42.1,42.1,0,0,0-.08,79.63,33,33,0,0,0,61.51,12,32.85,32.85,0,0,0,16.69,4.54,33.62,33.62,0,0,0,33.38-33.86,34.5,34.5,0,0,0-.57-6.2A39.5,39.5,0,0,0,158.76,58.86Z"/><g class="cls-2"><path class="cls-3" d="M47.47,11.31h-18V2.08h18Zm-17.2-.75H46.72V2.83H30.27Z"/><path class="cls-3" d="M60.38,20.3h-18V11.06h18Zm-17.2-.75H59.63V11.81H43.17Z"/></g><g class="cls-2"><path class="cls-3" d="M64.64,125.35h-18v-8h18Zm-17.2-.75H63.89v-6.51H47.44Z"/><path class="cls-3" d="M77.54,133h-18v-8h18Zm-17.2-.75H76.79v-6.51H60.34Z"/></g><g class="cls-2"><path class="cls-3" d="M158.68,59.63h-18V51.16h18Zm-17.2-.75h16.45v-7H141.48Z"/><path class="cls-3" d="M145.78,67.81h-18V59.34h18Zm-17.2-.75H145v-7H128.58Z"/></g><polygon class="cls-4" points="132.99 8.64 130.48 7.47 127.71 7.62 128.05 4.87 127.05 2.28 129.78 1.75 131.93 0 133.27 2.43 135.6 3.94 133.71 5.96 132.99 8.64"/><polygon class="cls-4" points="162.34 88.81 159.83 87.64 157.06 87.79 157.4 85.04 156.4 82.45 159.13 81.92 161.28 80.17 162.62 82.6 164.95 84.11 163.06 86.13 162.34 88.81"/><polygon class="cls-4" points="13.1 15.73 10.59 14.55 7.82 14.7 8.16 11.95 7.16 9.36 9.88 8.83 12.04 7.08 13.38 9.51 15.71 11.02 13.81 13.05 13.1 15.73"/><polygon class="cls-4" points="101.86 134.55 99.35 133.38 96.58 133.53 96.92 130.77 95.92 128.19 98.64 127.66 100.8 125.91 102.14 128.34 104.47 129.84 102.58 131.87 101.86 134.55"/><polygon class="cls-4" points="5.94 105.92 3.43 104.75 0.66 104.89 1 102.14 0 99.55 2.72 99.03 4.88 97.28 6.22 99.7 8.55 101.21 6.66 103.24 5.94 105.92"/><path class="cls-5" d="M133.47,37.4l.06,4a.63.63,0,0,0,1.25,0l-.06-4a.63.63,0,0,0-1.25,0Z"/><path class="cls-5" d="M130.87,30.57h3.28l-.62-.62v3a.63.63,0,0,0,1.25,0v-3a.63.63,0,0,0-.62-.62h-3.28a.63.63,0,0,0,0,1.25Z"/><rect class="cls-6" x="23.19" y="19.93" width="116.27" height="95.54"/><rect class="cls-5" x="23.03" y="19.77" width="116.75" height="3.24"/><path class="cls-7" d="M81.3,81.68"/><rect class="cls-8" x="23.01" y="98.66" width="115.83" height="16.82"/><rect class="cls-5" x="28.09" y="44.32" width="103.79" height="63.13"/><polygon class="cls-9" points="28.09 44.23 58.1 44.23 54.13 38.26 32.07 38.26 28.09 44.23"/><polygon class="cls-10" points="58.09 44.24 88.11 44.24 84.13 38.27 62.07 38.27 58.09 44.24"/><path class="cls-11" d="M137,117.15H25.52a4,4,0,0,1-3.95-3.95V21.86a4,4,0,0,1,3.95-3.95H137A4,4,0,0,1,141,21.86V113.2A4,4,0,0,1,137,117.15ZM25.52,19.91a2,2,0,0,0-1.95,1.95V113.2a2,2,0,0,0,1.95,1.95H137A2,2,0,0,0,139,113.2V21.86A2,2,0,0,0,137,19.91Z"/><circle class="cls-5" cx="126.39" cy="32.45" r="4.58"/><circle class="cls-5" cx="111.52" cy="32.45" r="4.58"/><circle class="cls-5" cx="96.64" cy="32.45" r="4.58"/><circle class="cls-12" cx="49.16" cy="31.16" r="2.73"/><circle class="cls-9" cx="40.3" cy="31.16" r="2.73"/><circle class="cls-13" cx="31.45" cy="31.16" r="2.73"/><path class="cls-14" d="M49.48,30.84a2.72,2.72,0,0,1,2.29,1.26,2.7,2.7,0,0,0,.12-.75,2.73,2.73,0,1,0-5,1.47A2.72,2.72,0,0,1,49.48,30.84Z"/><path class="cls-14" d="M40.71,30.84A2.72,2.72,0,0,1,43,32.09a2.7,2.7,0,0,0,.12-.75,2.73,2.73,0,1,0-5,1.47A2.72,2.72,0,0,1,40.71,30.84Z"/><path class="cls-14" d="M31.83,30.84a2.72,2.72,0,0,1,2.29,1.26,2.7,2.7,0,0,0,.12-.75,2.73,2.73,0,1,0-5,1.47A2.72,2.72,0,0,1,31.83,30.84Z"/><path class="cls-15" d="M105.61,61.67l-.13-.24a7.37,7.37,0,0,0-10-2.94L82.82,65.4a7.35,7.35,0,0,0-3.8,7l-2.3,1.26a7.35,7.35,0,0,0-7.9-.57L56.14,80a7.37,7.37,0,0,0-2.94,10l.13.24a7.37,7.37,0,0,0,10,2.94L76,86.2a7.35,7.35,0,0,0,3.8-7L82.09,78a7.36,7.36,0,0,0,7.9.57l12.68-6.91A7.36,7.36,0,0,0,105.61,61.67ZM61.79,88.82a2.88,2.88,0,0,1-3.9-1.15l-.12-.22a2.88,2.88,0,0,1,1.15-3.9l8.89-4.85A3.2,3.2,0,0,0,70.69,84ZM99.88,68.05l-8.8,4.8a3.19,3.19,0,0,0-2.87-5.26l8.8-4.8a2.88,2.88,0,0,1,3.9,1.15l.12.22A2.88,2.88,0,0,1,99.88,68.05Z"/></g></g></svg>