<svg data-v-5f19e91b="" xmlns="http://www.w3.org/2000/svg" width="462" height="30" viewBox="0 0 462 30"><!----> <!----> <!----> <g data-v-5f19e91b="" id="66b39aff-a86a-24ce-f31f-a7e1fc47b53a" fill="white" transform="matrix(4.288777828216553,0,0,4.288777828216553,87.81200408935547,-28.094100952148438)"><path d="M9.16 6.44C8.20 6.44 7.48 7.04 6.93 7.78C6.51 6.89 5.67 6.44 4.70 6.44C3.77 6.44 3.23 6.96 2.80 7.48L2.80 6.62L1.07 6.62L1.07 13.52L2.80 13.52L2.80 9.02C3.17 8.53 3.62 8.13 4.20 8.13C4.98 8.13 5.50 8.59 5.50 9.52L5.51 13.52L7.25 13.52L7.25 9.08C7.63 8.56 8.04 8.13 8.64 8.13C9.42 8.13 9.95 8.59 9.95 9.52L9.97 13.52L11.70 13.52L11.70 9.28C11.70 7.40 10.57 6.44 9.16 6.44ZM16.42 6.44C14.64 6.44 13.21 7.81 13.21 10.12C13.21 12.41 14.64 13.73 16.30 13.73C17.32 13.73 18.10 13.10 18.51 12.36L18.51 13.52L20.25 13.52L20.25 6.62L18.51 6.62L18.51 7.40C17.99 6.82 17.17 6.44 16.42 6.44ZM16.78 8.13C17.45 8.13 18.02 8.48 18.51 9.00L18.51 9.98C18.53 11.22 17.65 11.99 16.73 11.99C15.70 11.99 15.01 11.16 15.01 10.12C15.01 9.08 15.70 8.13 16.78 8.13ZM25.02 10.73L27.13 13.52L29.38 13.52L26.14 9.60L29.11 6.62L26.93 6.62L24.12 9.69L24.12 3.68L22.38 3.68L22.38 13.52L24.12 13.52L24.12 11.63ZM36.31 9.87C36.31 7.86 35.10 6.44 33.06 6.44C31.04 6.44 29.56 8.13 29.56 10.14C29.56 12.22 31.23 13.73 33.26 13.73C34.32 13.73 35.05 13.38 35.44 13.10L35.44 11.53C35.01 11.80 34.34 12.15 33.33 12.15C32.28 12.15 31.50 11.54 31.31 10.60L36.31 10.60ZM31.34 9.46C31.54 8.54 32.14 7.96 33.02 7.96C33.81 7.96 34.58 8.46 34.64 9.46ZM41.58 6.48C40.76 6.48 40.11 7.10 39.63 7.92L39.63 6.62L37.90 6.62L37.90 13.52L39.63 13.52L39.63 9.67C40.04 8.90 40.54 8.31 41.33 8.31C41.74 8.31 42.08 8.44 42.40 8.65L42.40 6.67C42.15 6.55 41.89 6.48 41.58 6.48ZM47.61 10.81L47.61 9.17L43.49 9.17L43.49 10.81ZM51.23 13.52L51.23 3.68L49.49 3.68L49.49 13.52ZM54.80 5.37C55.45 5.37 56 4.83 56 4.20C56 3.55 55.45 3.02 54.80 3.02C54.14 3.02 53.61 3.55 53.61 4.20C53.61 4.83 54.14 5.37 54.80 5.37ZM55.77 6.62L52.92 6.62L52.92 8.09L54.03 8.09L54.03 13.52L55.77 13.52ZM61.70 6.44C60.77 6.44 60.03 7.04 59.61 7.60L59.61 6.62L57.87 6.62L57.87 13.52L59.61 13.52L59.61 9.15C60.01 8.60 60.55 8.13 61.17 8.13C61.95 8.13 62.43 8.59 62.43 9.52L62.44 13.52L64.18 13.52L64.18 9.28C64.18 7.40 63.11 6.44 61.70 6.44ZM68.81 10.73L70.92 13.52L73.17 13.52L69.93 9.60L72.90 6.62L70.72 6.62L67.91 9.69L67.91 3.68L66.17 3.68L66.17 13.52L67.91 13.52L67.91 11.63ZM75.13 11.58C74.53 11.58 74.03 12.07 74.03 12.67C74.03 13.28 74.53 13.78 75.13 13.78C75.73 13.78 76.22 13.28 76.22 12.67C76.22 12.07 75.73 11.58 75.13 11.58ZM79.45 5.37C80.09 5.37 80.65 4.83 80.65 4.20C80.65 3.55 80.09 3.02 79.45 3.02C78.78 3.02 78.24 3.55 78.24 4.20C78.24 4.83 78.78 5.37 79.45 5.37ZM80.43 6.62L77.59 6.62L77.59 8.09L78.70 8.09L78.70 13.51C78.70 14.48 78.15 15.05 77.19 15.50L77.96 17.01C79.53 16.45 80.43 15.33 80.43 13.44ZM84.90 6.44C83.34 6.44 82.25 7.33 82.25 8.63C82.25 9.50 82.59 10.14 83.64 10.50L84.49 10.80C85.09 11.01 85.41 11.16 85.41 11.51C85.41 11.96 85.03 12.22 84.33 12.22C83.66 12.22 82.73 11.87 82.21 11.51L82.21 13.03C82.67 13.37 83.63 13.73 84.56 13.73C86.04 13.73 87.24 12.78 87.24 11.51C87.24 10.62 86.73 10.01 85.67 9.69L84.89 9.43C84.27 9.24 84.10 9.01 84.10 8.71C84.10 8.30 84.51 7.97 85.16 7.97C85.85 7.97 86.52 8.31 86.94 8.60L86.94 7.07C86.54 6.73 85.76 6.44 84.90 6.44Z"></path></g> <!----> <g data-v-5f19e91b="" id="5e6948fb-eb6d-ff07-2899-4fa907323228" transform="matrix(0.5746111273765564,0,0,0.5746111273765564,0.22488784790039062,-21.632396697998047)" stroke="none" fill="white"><path d="M90.716 58.23a.771.771 0 0 1 .345-.102l-.651-8.221-15.451 8.898 7.379 4.248 8.378-4.823zM38.218 79.959l-.784 9.898 26.347-15.169-8.355-4.635zM38.148 49.908l-.65 8.221c.119.01.239.039.347.102l8.789 5.061h.001l44.49 26.566-.785-9.898-52.192-30.052zM99.914 63.055l7.379-4.248-15.453-8.899-.65 8.221a.799.799 0 0 1 .348.102l8.376 4.824z"></path><path d="M64.904 53.248l8.394 4.613 17.184-9.895a.834.834 0 0 1 .579-.309.827.827 0 0 1 .712.313l17.581 10.121c.014.008.025.02.037.027.026.018.05.033.074.053a.965.965 0 0 1 .112.112c.02.023.036.049.053.074.009.014.02.023.038.061.014.027.025.055.036.082a.634.634 0 0 1 .044.148.532.532 0 0 1 .014.078c.003.027.002.053.002.08 0 .025.001.051-.002.078a.532.532 0 0 1-.014.078.634.634 0 0 1-.018.078c-.007.023-.017.047-.026.07-.011.027-.022.055-.047.105-.005.01-.014.016-.02.023a.717.717 0 0 1-.096.125c-.012.014-.021.025-.035.037a.817.817 0 0 1-.158.119L91.537 69.777a.823.823 0 0 1-.821 0L37.458 38.143 1.573 58.801 37.43 78.514l16.318-9.395-7.517-4.17-8.388 4.828a.815.815 0 0 1-.821 0c-.815-.451-16.51-9.107-17.285-9.568-.514-.305-1.114-.572-1.021-1.271.111-.842 1.209-1.262 1.861-1.637 2.014-1.16 4.028-2.318 6.042-3.479l10.17-5.855a.834.834 0 0 1 .579-.309.83.83 0 0 1 .713.313l53.053 30.545 35.863-19.709L91.125 38.15 64.904 53.248zM127 58.807L91.91 79.949l-.784 9.908L127 69.203z"></path><path d="M21.266 58.807l7.381 4.248 8.377-4.824a.806.806 0 0 1 .346-.102l-.651-8.221-15.453 8.899zM1 58.807v10.396l36.154 20.654-.925-9.908z"></path></g></svg>